# xmcd
#
# Track frame offsets:
#	150
#	14793
#	30099
#	61202
#	94358
#
# Disc length: 1808 seconds
#
# Revision: 1
# Processed by: cddbd v1.5.2PL0 Copyright (c) Steve Scherf et al.
# Submitted via: audiograbber 1.83.01
#
DISCID=37070e05
DTITLE=Grateful Dead - 78-05-17A Uptown Theatre, Chicago IL
DYEAR=1900
DGENRE=
TTITLE0=Funiculi Funicula
TTITLE1=Lazy Lightning
TTITLE2=Supplication
TTITLE3=Samson and Delilah
TTITLE4=Friend Of The Devil
EXTD=
EXTT0=
EXTT1=
EXTT2=
EXTT3=
EXTT4=
PLAYORDER=
